STARTFONT 2.1
FONT -hp-batang-medium-r-normal--24-240-75-75-c-120-ksc5636.1989-0
SIZE 24 75 75
FONTBOUNDINGBOX 12 24 0 -2

STARTPROPERTIES 23
FONTNAME_REGISTRY ""
FOUNDRY "HP"
FAMILY_NAME "Batang"
WEIGHT_NAME "Medium"
SLANT "R"
SETWIDTH_NAME "Normal"
ADD_STYLE_NAME ""
PIXEL_SIZE 24
POINT_SIZE 240
RESOLUTION_X 75
RESOLUTION_Y 75
SPACING "C"
AVERAGE_WIDTH 120
CHARSET_REGISTRY "KSC5636.1989"
CHARSET_ENCODING "0"
COPYRIGHT "Copyright (c) 1999 Samsung Hewlett-Packard Company."
WEIGHT 158
X_HEIGHT 22
QUAD_WIDTH 12
_HP_ASXVERSION "@(#) ASX 3.00 $Revision: 13.9 $ bat24a"
DEFAULT_CHAR 32
FONT_DESCENT 2
FONT_ASCENT 22
ENDPROPERTIES

CHARS 256

STARTCHAR C000
ENCODING 0
SWIDTH 451 0
DWIDTH 12 0
BBX 12 24 0 -2
BITMAP
0000
0000
0000
0000
0000
0000
0000
0000
0000
0000
0000
0000
0000
0000
0000
0000
0000
0000
0000
0000
0000
0000
0000
0000
ENDCHAR

STARTCHAR C001
ENCODING 1
SWIDTH 451 0
DWIDTH 12 0
BBX 12 24 0 -2
BITMAP
0000
0000
0000
0000
0000
1F80
6060
4020
9990
A650
8010
8010
A050
9090
4F20
6060
1F80
0000
0000
0000
0000
0000
0000
0000
ENDCHAR

STARTCHAR C002
ENCODING 2
SWIDTH 451 0
DWIDTH 12 0
BBX 12 24 0 -2
BITMAP
0000
0000
0000
0000
0000
0F00
3FC0
7FE0
4620
9090
FFF0
FFF0
9F90
4F20
6060
30C0
0F00
0000
0000
0000
0000
0000
0000
0000
ENDCHAR

STARTCHAR C003
ENCODING 3
SWIDTH 451 0
DWIDTH 12 0
BBX 12 24 0 -2
BITMAP
0000
0000
0000
0000
0000
0000
38E0
7DF0
7FF0
7FF0
7FF0
3FE0
1FC0
0F80
0700
0200
0000
0000
0000
0000
0000
0000
0000
0000
ENDCHAR

STARTCHAR C004
ENCODING 4
SWIDTH 451 0
DWIDTH 12 0
BBX 12 24 0 -2
BITMAP
0000
0000
0000
0000
0000
0000
0200
0700
0F80
1FC0
3FE0
7FF0
3FE0
1FC0
0F80
0700
0200
0000
0000
0000
0000
0000
0000
0000
ENDCHAR

STARTCHAR C005
ENCODING 5
SWIDTH 451 0
DWIDTH 12 0
BBX 12 24 0 -2
BITMAP
0000
0000
0000
0000
0600
0F00
1F80
1F80
0F00
76E0
FFF0
FFF0
FFF0
76E0
0600
0F00
3FC0
0000
0000
0000
0000
0000
0000
0000
ENDCHAR

STARTCHAR C006
ENCODING 6
SWIDTH 451 0
DWIDTH 12 0
BBX 12 24 0 -2
BITMAP
0000
0000
0000
0000
0000
0600
0F00
1F80
3FC0
7FE0
FFF0
FFF0
FFF0
76E0
0600
0F00
3FC0
0000
0000
0000
0000
0000
0000
0000
ENDCHAR

STARTCHAR C007
ENCODING 7
SWIDTH 451 0
DWIDTH 12 0
BBX 12 24 0 -2
BITMAP
0000
0000
0000
0000
0000
0000
0000
0000
0700
1FC0
1FC0
3FE0
3FE0
1FC0
1FC0
0700
0000
0000
0000
0000
0000
0000
0000
0000
ENDCHAR

STARTCHAR C008
ENCODING 8
SWIDTH 451 0
DWIDTH 12 0
BBX 12 24 0 -2
BITMAP
0000
0000
0000
0000
FFF0
FFF0
FFF0
FFF0
F8F0
E030
E030
C010
C010
E030
E030
F8F0
FFF0
FFF0
FFF0
FFF0
0000
0000
0000
0000
ENDCHAR

STARTCHAR C009
ENCODING 9
SWIDTH 451 0
DWIDTH 12 0
BBX 12 24 0 -2
BITMAP
0000
0000
0000
0000
0000
0000
0000
0F00
3FC0
30C0
6060
6060
6060
6060
30C0
3FC0
0F00
0000
0000
0000
0000
0000
0000
0000
ENDCHAR

STARTCHAR C010
ENCODING 10
SWIDTH 451 0
DWIDTH 12 0
BBX 12 24 0 -2
BITMAP
0000
0000
0000
0000
FFF0
FFF0
FFF0
F0F0
C030
CF30
9F90
9F90
9F90
9F90
CF30
C030
F0F0
FFF0
FFF0
FFF0
0000
0000
0000
0000
ENDCHAR

STARTCHAR C011
ENCODING 11
SWIDTH 451 0
DWIDTH 12 0
BBX 12 24 0 -2
BITMAP
0000
0000
0600
0F00
1F80
3FC0
76E0
E670
4620
0600
0600
0F00
3FC0
30C0
6060
6060
6060
30C0
3FC0
0F00
0000
0000
0000
0000
ENDCHAR

STARTCHAR C012
ENCODING 12
SWIDTH 451 0
DWIDTH 12 0
BBX 12 24 0 -2
BITMAP
0000
0000
0F00
3FC0
30C0
6060
6060
6060
6060
30C0
3FC0
0F00
0600
0600
7FE0
7FE0
0600
0600
0600
0600
0000
0000
0000
0000
ENDCHAR

STARTCHAR C013
ENCODING 13
SWIDTH 451 0
DWIDTH 12 0
BBX 12 24 0 -2
BITMAP
0000
0000
0000
0000
0400
0600
0700
0780
07C0
06E0
0670
0630
0630
0660
0600
0600
0E00
3E00
7E00
7C00
3800
0000
0000
0000
ENDCHAR

STARTCHAR C014
ENCODING 14
SWIDTH 451 0
DWIDTH 12 0
BBX 12 24 0 -2
BITMAP
0000
0000
0000
0000
00E0
03E0
0F60
0C60
0CE0
0FE0
0F60
0C60
0C60
0C60
0C60
0C60
3DE0
7BE0
7BC0
7180
0000
0000
0000
0000
ENDCHAR

STARTCHAR C015
ENCODING 15
SWIDTH 451 0
DWIDTH 12 0
BBX 12 24 0 -2
BITMAP
0000
0000
0000
0000
0000
0600
4620
E670
7FE0
30C0
E070
E070
2040
30C0
7FE0
E670
4620
0600
0000
0000
0000
0000
0000
0000
ENDCHAR

STARTCHAR C016
ENCODING 16
SWIDTH 451 0
DWIDTH 12 0
BBX 12 24 0 -2
BITMAP
0000
0000
0000
0000
8000
E000
F800
FE00
FF80
FFE0
FFF0
FFE0
FF80
FE00
F800
E000
8000
0000
0000
0000
0000
0000
0000
0000
ENDCHAR

STARTCHAR C017
ENCODING 17
SWIDTH 451 0
DWIDTH 12 0
BBX 12 24 0 -2
BITMAP
0000
0000
0000
0000
0000
0010
0070
01F0
07F0
1FF0
7FF0
FFF0
7FF0
1FF0
07F0
01F0
0070
0010
0000
0000
0000
0000
0000
0000
ENDCHAR

STARTCHAR C018
ENCODING 18
SWIDTH 451 0
DWIDTH 12 0
BBX 12 24 0 -2
BITMAP
0000
0000
0000
0000
0600
0F00
1F80
36C0
0600
0600
0600
0600
0600
0600
0600
0600
36C0
1F80
0F00
0600
0000
0000
0000
0000
ENDCHAR

STARTCHAR C019
ENCODING 19
SWIDTH 451 0
DWIDTH 12 0
BBX 12 24 0 -2
BITMAP
0000
0000
1040
38E0
38E0
38E0
38E0
38E0
38E0
38E0
38E0
38E0
38E0
1040
1040
1040
1040
0000
0000
1040
38E0
1040
0000
0000
ENDCHAR

STARTCHAR C020
ENCODING 20
SWIDTH 451 0
DWIDTH 12 0
BBX 12 24 0 -2
BITMAP
0000
0000
0000
0000
1FE0
7F60
FF60
FF60
FF60
FF60
7F60
1F60
0360
0360
0360
0360
0360
0360
07F0
0000
0000
0000
0000
0000
ENDCHAR

STARTCHAR C021
ENCODING 21
SWIDTH 451 0
DWIDTH 12 0
BBX 12 24 0 -2
BITMAP
0000
0000
0F00
30C0
6060
6060
3800
1E00
3380
20C0
6060
6060
3060
1CC0
0780
01C0
6060
6060
30C0
0F00
0000
0000
0000
0000
ENDCHAR

STARTCHAR C022
ENCODING 22
SWIDTH 451 0
DWIDTH 12 0
BBX 12 24 0 -2
BITMAP
0000
0000
0000
0000
0000
0000
0000
0000
7FE0
7FE0
7FE0
7FE0
7FE0
7FE0
7FE0
7FE0
0000
0000
0000
0000
0000
0000
0000
0000
ENDCHAR

STARTCHAR C023
ENCODING 23
SWIDTH 451 0
DWIDTH 12 0
BBX 12 24 0 -2
BITMAP
0000
0000
0000
0000
0300
0780
0FC0
1B60
0300
0300
0300
0300
0300
0300
0300
1B60
0FC0
0780
0300
0000
0000
3FF0
3FF0
0000
ENDCHAR

STARTCHAR C024
ENCODING 24
SWIDTH 451 0
DWIDTH 12 0
BBX 12 24 0 -2
BITMAP
0000
0000
0000
0000
0300
0780
0FC0
1B60
3330
0300
0300
0300
0300
0300
0300
0300
0300
0300
0300
0300
0000
0000
0000
0000
ENDCHAR

STARTCHAR C025
ENCODING 25
SWIDTH 451 0
DWIDTH 12 0
BBX 12 24 0 -2
BITMAP
0000
0000
0000
0000
0300
0300
0300
0300
0300
0300
0300
0300
0300
0300
0300
3330
1B60
0FC0
0780
0300
0000
0000
0000
0000
ENDCHAR

STARTCHAR C026
ENCODING 26
SWIDTH 451 0
DWIDTH 12 0
BBX 12 24 0 -2
BITMAP
0000
0000
0000
0000
0000
0000
0000
0000
0180
00C0
0060
FFF0
FFF0
0060
00C0
0180
0000
0000
0000
0000
0000
0000
0000
0000
ENDCHAR

STARTCHAR C027
ENCODING 27
SWIDTH 451 0
DWIDTH 12 0
BBX 12 24 0 -2
BITMAP
0000
0000
0000
0000
0000
0000
0000
0000
1800
3000
6000
FFF0
FFF0
6000
3000
1800
0000
0000
0000
0000
0000
0000
0000
0000
ENDCHAR

STARTCHAR C028
ENCODING 28
SWIDTH 451 0
DWIDTH 12 0
BBX 12 24 0 -2
BITMAP
0000
0000
0000
0000
0000
0000
0000
0000
3000
3000
3000
3000
3000
3FF0
3FF0
0000
0000
0000
0000
0000
0000
0000
0000
0000
ENDCHAR

STARTCHAR C029
ENCODING 29
SWIDTH 451 0
DWIDTH 12 0
BBX 12 24 0 -2
BITMAP
0000
0000
0000
0000
0000
0000
0000
0000
1980
30C0
6060
FFF0
FFF0
6060
30C0
1980
0000
0000
0000
0000
0000
0000
0000
0000
ENDCHAR

STARTCHAR C030
ENCODING 30
SWIDTH 451 0
DWIDTH 12 0
BBX 12 24 0 -2
BITMAP
0000
0000
0000
0000
0000
0000
0600
0600
0F00
0F00
1F80
1F80
3FC0
3FC0
7FE0
7FE0
FFF0
0000
0000
0000
0000
0000
0000
0000
ENDCHAR

STARTCHAR C031
ENCODING 31
SWIDTH 451 0
DWIDTH 12 0
BBX 12 24 0 -2
BITMAP
0000
0000
0000
0000
0000
0000
FFF0
7FE0
7FE0
3FC0
3FC0
1F80
1F80
0F00
0F00
0600
0600
0000
0000
0000
0000
0000
0000
0000
ENDCHAR

STARTCHAR C032
ENCODING 32
SWIDTH 451 0
DWIDTH 12 0
BBX 12 24 0 -2
BITMAP
0000
0000
0000
0000
0000
0000
0000
0000
0000
0000
0000
0000
0000
0000
0000
0000
0000
0000
0000
0000
0000
0000
0000
0000
ENDCHAR

STARTCHAR C033
ENCODING 33
SWIDTH 451 0
DWIDTH 12 0
BBX 12 24 0 -2
BITMAP
0000
0000
0200
0700
0700
0700
0700
0700
0700
0700
0700
0700
0700
0200
0200
0200
0000
0000
0200
0700
0700
0200
0000
0000
ENDCHAR

STARTCHAR C034
ENCODING 34
SWIDTH 451 0
DWIDTH 12 0
BBX 12 24 0 -2
BITMAP
0000
0000
0880
1DC0
1DC0
1DC0
0880
0880
0880
0000
0000
0000
0000
0000
0000
0000
0000
0000
0000
0000
0000
0000
0000
0000
ENDCHAR

STARTCHAR C035
ENCODING 35
SWIDTH 451 0
DWIDTH 12 0
BBX 12 24 0 -2
BITMAP
0000
0000
0000
0000
0660
0660
0660
0660
3FF0
0CC0
0CC0
0CC0
0CC0
0CC0
7FE0
1980
1980
1980
1980
0000
0000
0000
0000
0000
ENDCHAR

STARTCHAR C036
ENCODING 36
SWIDTH 451 0
DWIDTH 12 0
BBX 12 24 0 -2
BITMAP
0000
0000
0400
0400
0E40
35C0
64C0
6440
6440
3400
1C00
0E00
0580
04C0
4460
4460
6460
74C0
5F80
0400
0400
0000
0000
0000
ENDCHAR

STARTCHAR C037
ENCODING 37
SWIDTH 451 0
DWIDTH 12 0
BBX 12 24 0 -2
BITMAP
0000
0000
1C30
3230
6260
6660
46C0
4CC0
3980
0180
0300
0300
0600
0600
0CE0
0D90
1B10
1B30
3230
3260
61C0
0000
0000
0000
ENDCHAR

STARTCHAR C038
ENCODING 38
SWIDTH 451 0
DWIDTH 12 0
BBX 12 24 0 -2
BITMAP
0000
0000
0000
0000
1C00
3600
6300
6300
6300
3600
1C70
3820
3820
6C60
C640
C340
C1C0
61D0
3E60
0000
0000
0000
0000
0000
ENDCHAR

STARTCHAR C039
ENCODING 39
SWIDTH 451 0
DWIDTH 12 0
BBX 12 24 0 -2
BITMAP
0000
0000
0200
0700
0700
0700
0200
0200
0200
0000
0000
0000
0000
0000
0000
0000
0000
0000
0000
0000
0000
0000
0000
0000
ENDCHAR

STARTCHAR C040
ENCODING 40
SWIDTH 451 0
DWIDTH 12 0
BBX 12 24 0 -2
BITMAP
0000
0040
00C0
0180
0180
0300
0300
0300
0600
0600
0600
0600
0600
0600
0600
0600
0300
0300
0300
0180
0180
00C0
0040
0000
ENDCHAR

STARTCHAR C041
ENCODING 41
SWIDTH 451 0
DWIDTH 12 0
BBX 12 24 0 -2
BITMAP
0000
2000
3000
1800
1800
0C00
0C00
0C00
0600
0600
0600
0600
0600
0600
0600
0600
0C00
0C00
0C00
1800
1800
3000
2000
0000
ENDCHAR

STARTCHAR C042
ENCODING 42
SWIDTH 451 0
DWIDTH 12 0
BBX 12 24 0 -2
BITMAP
0000
0000
0000
0000
0000
0600
0F00
0F00
2640
76E0
76E0
3FC0
0F00
1F80
39C0
39C0
1080
0000
0000
0000
0000
0000
0000
0000
ENDCHAR

STARTCHAR C043
ENCODING 43
SWIDTH 451 0
DWIDTH 12 0
BBX 12 24 0 -2
BITMAP
0000
0000
0000
0000
0000
0000
0600
0600
0600
0600
7FE0
7FE0
0600
0600
0600
0600
0000
0000
0000
0000
0000
0000
0000
0000
ENDCHAR

STARTCHAR C044
ENCODING 44
SWIDTH 451 0
DWIDTH 12 0
BBX 12 24 0 -2
BITMAP
0000
0000
0000
0000
0000
0000
0000
0000
0000
0000
0000
0000
0000
0000
0000
0000
1800
3C00
3C00
1800
0800
3000
0000
0000
ENDCHAR

STARTCHAR C045
ENCODING 45
SWIDTH 451 0
DWIDTH 12 0
BBX 12 24 0 -2
BITMAP
0000
0000
0000
0000
0000
0000
0000
0000
0000
0000
0000
7FE0
7FE0
0000
0000
0000
0000
0000
0000
0000
0000
0000
0000
0000
ENDCHAR

STARTCHAR C046
ENCODING 46
SWIDTH 451 0
DWIDTH 12 0
BBX 12 24 0 -2
BITMAP
0000
0000
0000
0000
0000
0000
0000
0000
0000
0000
0000
0000
0000
0000
0000
0000
1800
3C00
3C00
1800
0000
0000
0000
0000
ENDCHAR

STARTCHAR C047
ENCODING 47
SWIDTH 451 0
DWIDTH 12 0
BBX 12 24 0 -2
BITMAP
0000
0060
00C0
00C0
00C0
0180
0180
0180
0300
0300
0300
0600
0600
0C00
0C00
0C00
1800
1800
1800
3000
3000
3000
6000
0000
ENDCHAR

STARTCHAR C048
ENCODING 48
SWIDTH 451 0
DWIDTH 12 0
BBX 12 24 0 -2
BITMAP
0000
0000
0000
0000
0F00
1980
30C0
31C0
6160
6360
6260
6660
6460
6C60
6860
38C0
30C0
1980
0F00
0000
0000
0000
0000
0000
ENDCHAR

STARTCHAR C049
ENCODING 49
SWIDTH 451 0
DWIDTH 12 0
BBX 12 24 0 -2
BITMAP
0000
0000
0000
0000
0200
3E00
0600
0600
0600
0600
0600
0600
0600
0600
0600
0600
0600
0600
3FC0
0000
0000
0000
0000
0000
ENDCHAR

STARTCHAR C050
ENCODING 50
SWIDTH 451 0
DWIDTH 12 0
BBX 12 24 0 -2
BITMAP
0000
0000
0000
0000
1F00
3180
60C0
70C0
30C0
00C0
0180
0300
0600
0C00
1800
3020
3060
7FC0
7FC0
0000
0000
0000
0000
0000
ENDCHAR

STARTCHAR C051
ENCODING 51
SWIDTH 451 0
DWIDTH 12 0
BBX 12 24 0 -2
BITMAP
0000
0000
0000
0000
0F80
38C0
7060
3060
0060
01C0
0780
00C0
00C0
0060
0060
2060
70E0
78C0
1F80
0000
0000
0000
0000
0000
ENDCHAR

STARTCHAR C052
ENCODING 52
SWIDTH 451 0
DWIDTH 12 0
BBX 12 24 0 -2
BITMAP
0000
0000
0000
0000
0180
0180
0380
0780
0780
0D80
1980
1980
3180
6180
7FE0
0180
0180
0180
07E0
0000
0000
0000
0000
0000
ENDCHAR

STARTCHAR C053
ENCODING 53
SWIDTH 451 0
DWIDTH 12 0
BBX 12 24 0 -2
BITMAP
0000
0000
0000
0000
3FC0
3F80
2000
2000
2000
3F80
30C0
0060
0060
0060
0060
3060
7860
78C0
1F80
0000
0000
0000
0000
0000
ENDCHAR

STARTCHAR C054
ENCODING 54
SWIDTH 451 0
DWIDTH 12 0
BBX 12 24 0 -2
BITMAP
0000
0000
0000
0000
0780
1860
3060
3000
6000
6000
6F80
70C0
6060
6060
6060
6060
6060
30C0
1F80
0000
0000
0000
0000
0000
ENDCHAR

STARTCHAR C055
ENCODING 55
SWIDTH 451 0
DWIDTH 12 0
BBX 12 24 0 -2
BITMAP
0000
0000
0000
0000
1FE0
1FE0
3060
2040
00C0
00C0
0080
0180
0180
0100
0300
0300
0200
0600
0600
0000
0000
0000
0000
0000
ENDCHAR

STARTCHAR C056
ENCODING 56
SWIDTH 451 0
DWIDTH 12 0
BBX 12 24 0 -2
BITMAP
0000
0000
0000
0000
0F00
1980
30C0
30C0
38C0
1D80
0F00
1F80
31C0
60E0
6060
6060
30C0
39C0
0F00
0000
0000
0000
0000
0000
ENDCHAR

STARTCHAR C057
ENCODING 57
SWIDTH 451 0
DWIDTH 12 0
BBX 12 24 0 -2
BITMAP
0000
0000
0000
0000
0F00
39C0
30C0
6060
6060
6060
30E0
39E0
0F60
0060
0060
2060
70C0
71C0
1F80
0000
0000
0000
0000
0000
ENDCHAR

STARTCHAR C058
ENCODING 58
SWIDTH 451 0
DWIDTH 12 0
BBX 12 24 0 -2
BITMAP
0000
0000
0000
0000
0000
0600
0F00
0F00
0600
0000
0000
0000
0000
0000
0000
0600
0F00
0F00
0600
0000
0000
0000
0000
0000
ENDCHAR

STARTCHAR C059
ENCODING 59
SWIDTH 451 0
DWIDTH 12 0
BBX 12 24 0 -2
BITMAP
0000
0000
0000
0000
0000
0600
0F00
0F00
0600
0000
0000
0000
0000
0000
0000
0600
0F00
0F00
0700
0300
0200
0C00
0000
0000
ENDCHAR

STARTCHAR C060
ENCODING 60
SWIDTH 451 0
DWIDTH 12 0
BBX 12 24 0 -2
BITMAP
0000
0000
0000
0000
0030
00F0
03C0
0F00
3C00
F000
C000
F000
3C00
0F00
03C0
00F0
0030
0000
0000
0000
0000
0000
0000
0000
ENDCHAR

STARTCHAR C061
ENCODING 61
SWIDTH 451 0
DWIDTH 12 0
BBX 12 24 0 -2
BITMAP
0000
0000
0000
0000
0000
0000
0000
7FF0
7FF0
0000
0000
0000
0000
7FF0
7FF0
0000
0000
0000
0000
0000
0000
0000
0000
0000
ENDCHAR

STARTCHAR C062
ENCODING 62
SWIDTH 451 0
DWIDTH 12 0
BBX 12 24 0 -2
BITMAP
0000
0000
0000
0000
C000
F000
3C00
0F00
03C0
00F0
0030
00F0
03C0
0F00
3C00
F000
C000
0000
0000
0000
0000
0000
0000
0000
ENDCHAR

STARTCHAR C063
ENCODING 63
SWIDTH 451 0
DWIDTH 12 0
BBX 12 24 0 -2
BITMAP
0000
0000
0F80
38C0
3060
6060
7060
70E0
20C0
0180
0300
0200
0600
0400
0400
0000
0000
0000
0600
0F00
0F00
0600
0000
0000
ENDCHAR

STARTCHAR C064
ENCODING 64
SWIDTH 451 0
DWIDTH 12 0
BBX 12 24 0 -2
BITMAP
0000
0000
0000
0000
0700
18C0
3060
6020
66B0
CDB0
C8B0
D9B0
D920
D960
DB40
6C80
6000
30C0
0F00
0000
0000
0000
0000
0000
ENDCHAR

STARTCHAR C065
ENCODING 65
SWIDTH 451 0
DWIDTH 12 0
BBX 12 24 0 -2
BITMAP
0000
0000
0000
0000
0200
0200
0700
0700
0980
0980
0980
10C0
1FC0
1FC0
10C0
2060
2060
2060
79F0
0000
0000
0000
0000
0000
ENDCHAR

STARTCHAR C066
ENCODING 66
SWIDTH 451 0
DWIDTH 12 0
BBX 12 24 0 -2
BITMAP
0000
0000
0000
0000
7F00
30C0
3060
3060
3060
30C0
3F80
30E0
3060
3030
3030
3030
3060
30E0
7F80
0000
0000
0000
0000
0000
ENDCHAR

STARTCHAR C067
ENCODING 67
SWIDTH 451 0
DWIDTH 12 0
BBX 12 24 0 -2
BITMAP
0000
0000
0000
0000
0720
18E0
3060
3020
6020
6000
6000
6000
6000
6000
6000
3020
3060
18C0
0780
0000
0000
0000
0000
0000
ENDCHAR

STARTCHAR C068
ENCODING 68
SWIDTH 451 0
DWIDTH 12 0
BBX 12 24 0 -2
BITMAP
0000
0000
0000
0000
7F00
30C0
3060
3060
3030
3030
3030
3030
3030
3030
3030
3060
3060
30C0
7F00
0000
0000
0000
0000
0000
ENDCHAR

STARTCHAR C069
ENCODING 69
SWIDTH 451 0
DWIDTH 12 0
BBX 12 24 0 -2
BITMAP
0000
0000
0000
0000
7FE0
1830
1810
1800
1880
1880
1F80
1880
1880
1800
1800
1800
1810
1820
7FE0
0000
0000
0000
0000
0000
ENDCHAR

STARTCHAR C070
ENCODING 70
SWIDTH 451 0
DWIDTH 12 0
BBX 12 24 0 -2
BITMAP
0000
0000
0000
0000
7FE0
1830
1810
1810
1880
1880
1F80
1880
1880
1800
1800
1800
1800
1800
7E00
0000
0000
0000
0000
0000
ENDCHAR

STARTCHAR C071
ENCODING 71
SWIDTH 451 0
DWIDTH 12 0
BBX 12 24 0 -2
BITMAP
0000
0000
0000
0000
0720
18E0
3060
3020
6020
6000
6000
61F0
6060
6060
6060
3060
3060
18C0
0700
0000
0000
0000
0000
0000
ENDCHAR

STARTCHAR C072
ENCODING 72
SWIDTH 451 0
DWIDTH 12 0
BBX 12 24 0 -2
BITMAP
0000
0000
0000
0000
78F0
3060
3060
3060
3060
3060
3FE0
3060
3060
3060
3060
3060
3060
3060
78F0
0000
0000
0000
0000
0000
ENDCHAR

STARTCHAR C073
ENCODING 73
SWIDTH 451 0
DWIDTH 12 0
BBX 12 24 0 -2
BITMAP
0000
0000
0000
0000
3FC0
0600
0600
0600
0600
0600
0600
0600
0600
0600
0600
0600
0600
0600
3FC0
0000
0000
0000
0000
0000
ENDCHAR

STARTCHAR C074
ENCODING 74
SWIDTH 451 0
DWIDTH 12 0
BBX 12 24 0 -2
BITMAP
0000
0000
0000
0000
07E0
0180
0180
0180
0180
0180
0180
0180
0180
0180
2180
7180
7100
2300
1E00
0000
0000
0000
0000
0000
ENDCHAR

STARTCHAR C075
ENCODING 75
SWIDTH 451 0
DWIDTH 12 0
BBX 12 24 0 -2
BITMAP
0000
0000
0000
0000
78F0
3060
30C0
3180
3300
3600
3C00
3C00
3600
3300
3180
3180
30C0
3060
7CF0
0000
0000
0000
0000
0000
ENDCHAR

STARTCHAR C076
ENCODING 76
SWIDTH 451 0
DWIDTH 12 0
BBX 12 24 0 -2
BITMAP
0000
0000
0000
0000
7E00
1800
1800
1800
1800
1800
1800
1800
1800
1800
1810
1810
1830
1860
7FE0
0000
0000
0000
0000
0000
ENDCHAR

STARTCHAR C077
ENCODING 77
SWIDTH 451 0
DWIDTH 12 0
BBX 12 24 0 -2
BITMAP
0000
0000
0000
0000
7070
30E0
38E0
38E0
39E0
2D60
2D60
2F60
2660
2660
2660
2060
2060
2060
70F0
0000
0000
0000
0000
0000
ENDCHAR

STARTCHAR C078
ENCODING 78
SWIDTH 451 0
DWIDTH 12 0
BBX 12 24 0 -2
BITMAP
0000
0000
0000
0000
7070
3820
3820
2C20
2C20
2620
2620
2320
2320
21A0
21A0
20A0
20E0
2060
7060
0000
0000
0000
0000
0000
ENDCHAR

STARTCHAR C079
ENCODING 79
SWIDTH 451 0
DWIDTH 12 0
BBX 12 24 0 -2
BITMAP
0000
0000
0000
0000
0700
18C0
3060
2020
6030
6030
6030
6030
6030
6030
6030
2020
3060
18C0
0700
0000
0000
0000
0000
0000
ENDCHAR

STARTCHAR C080
ENCODING 80
SWIDTH 451 0
DWIDTH 12 0
BBX 12 24 0 -2
BITMAP
0000
0000
0000
0000
7F80
1860
1830
1830
1830
1830
1830
1860
1F80
1800
1800
1800
1800
1800
7E00
0000
0000
0000
0000
0000
ENDCHAR

STARTCHAR C081
ENCODING 81
SWIDTH 451 0
DWIDTH 12 0
BBX 12 24 0 -2
BITMAP
0000
0000
0000
0000
0700
18C0
3060
2020
6030
6030
6030
6030
6030
6030
6730
29A0
39E0
18C0
0F90
00F0
0060
0000
0000
0000
ENDCHAR

STARTCHAR C082
ENCODING 82
SWIDTH 451 0
DWIDTH 12 0
BBX 12 24 0 -2
BITMAP
0000
0000
0000
0000
7F00
30C0
3060
3060
3060
3060
30C0
3F80
3180
3180
30C0
30C0
3060
3060
78F0
0000
0000
0000
0000
0000
ENDCHAR

STARTCHAR C083
ENCODING 83
SWIDTH 451 0
DWIDTH 12 0
BBX 12 24 0 -2
BITMAP
0000
0000
0000
0000
0700
18A0
3060
3020
3020
3800
1E00
0780
01C0
0060
2030
2030
3030
2C60
2380
0000
0000
0000
0000
0000
ENDCHAR

STARTCHAR C084
ENCODING 84
SWIDTH 451 0
DWIDTH 12 0
BBX 12 24 0 -2
BITMAP
0000
0000
0000
0000
7FE0
6660
4620
4620
0600
0600
0600
0600
0600
0600
0600
0600
0600
0600
1F80
0000
0000
0000
0000
0000
ENDCHAR

STARTCHAR C085
ENCODING 85
SWIDTH 451 0
DWIDTH 12 0
BBX 12 24 0 -2
BITMAP
0000
0000
0000
0000
F0F0
6060
6060
6060
6060
6060
6060
6060
6060
6060
6060
6060
3040
38C0
0F00
0000
0000
0000
0000
0000
ENDCHAR

STARTCHAR C086
ENCODING 86
SWIDTH 451 0
DWIDTH 12 0
BBX 12 24 0 -2
BITMAP
0000
0000
0000
0000
F0F0
6020
6020
6060
3040
3040
30C0
1880
1880
1980
0900
0D00
0F00
0600
0600
0000
0000
0000
0000
0000
ENDCHAR

STARTCHAR C087
ENCODING 87
SWIDTH 451 0
DWIDTH 12 0
BBX 12 24 0 -2
BITMAP
0000
0000
0000
0000
EF70
6620
6620
6620
6620
6620
3F40
3B40
3B40
3B40
3B40
3BC0
1080
1080
1080
0000
0000
0000
0000
0000
ENDCHAR

STARTCHAR C088
ENCODING 88
SWIDTH 451 0
DWIDTH 12 0
BBX 12 24 0 -2
BITMAP
0000
0000
0000
0000
F9F0
70C0
30C0
1980
1980
0F00
0F00
0600
0F00
0F80
1980
30C0
30E0
6060
F9F0
0000
0000
0000
0000
0000
ENDCHAR

STARTCHAR C089
ENCODING 89
SWIDTH 451 0
DWIDTH 12 0
BBX 12 24 0 -2
BITMAP
0000
0000
0000
0000
F070
6020
3040
3040
1880
1880
0D00
0F00
0600
0600
0600
0600
0600
0600
1F80
0000
0000
0000
0000
0000
ENDCHAR

STARTCHAR C090
ENCODING 90
SWIDTH 451 0
DWIDTH 12 0
BBX 12 24 0 -2
BITMAP
0000
0000
0000
0000
3FE0
3060
60C0
40C0
0180
0180
0300
0600
0600
0C00
1800
1810
3030
6060
7FE0
0000
0000
0000
0000
0000
ENDCHAR

STARTCHAR C091
ENCODING 91
SWIDTH 451 0
DWIDTH 12 0
BBX 12 24 0 -2
BITMAP
0000
07C0
07C0
0400
0400
0400
0400
0400
0400
0400
0400
0400
0400
0400
0400
0400
0400
0400
0400
0400
0400
07C0
07C0
0000
ENDCHAR

STARTCHAR C092
ENCODING 92
SWIDTH 451 0
DWIDTH 12 0
BBX 12 24 0 -2
BITMAP
0000
6000
6000
3000
3000
3000
1800
1800
1800
0C00
0C00
0C00
0600
0600
0300
0300
0300
0180
0180
0180
00C0
00C0
0060
0000
ENDCHAR

STARTCHAR C093
ENCODING 93
SWIDTH 451 0
DWIDTH 12 0
BBX 12 24 0 -2
BITMAP
0000
3E00
3E00
0200
0200
0200
0200
0200
0200
0200
0200
0200
0200
0200
0200
0200
0200
0200
0200
0200
0200
3E00
3E00
0000
ENDCHAR

STARTCHAR C094
ENCODING 94
SWIDTH 451 0
DWIDTH 12 0
BBX 12 24 0 -2
BITMAP
0200
0700
0D80
1040
0000
0000
0000
0000
0000
0000
0000
0000
0000
0000
0000
0000
0000
0000
0000
0000
0000
0000
0000
0000
ENDCHAR

STARTCHAR C095
ENCODING 95
SWIDTH 451 0
DWIDTH 12 0
BBX 12 24 0 -2
BITMAP
0000
0000
0000
0000
0000
0000
0000
0000
0000
0000
0000
0000
0000
0000
0000
0000
0000
0000
0000
0000
0000
0000
FFF0
0000
ENDCHAR

STARTCHAR C096
ENCODING 96
SWIDTH 451 0
DWIDTH 12 0
BBX 12 24 0 -2
BITMAP
0300
0380
01C0
0060
0000
0000
0000
0000
0000
0000
0000
0000
0000
0000
0000
0000
0000
0000
0000
0000
0000
0000
0000
0000
ENDCHAR

STARTCHAR C097
ENCODING 97
SWIDTH 451 0
DWIDTH 12 0
BBX 12 24 0 -2
BITMAP
0000
0000
0000
0000
0000
0000
0000
0000
0F80
3040
3060
0060
0FE0
3060
6060
6060
6060
3060
0FB0
0000
0000
0000
0000
0000
ENDCHAR

STARTCHAR C098
ENCODING 98
SWIDTH 451 0
DWIDTH 12 0
BBX 12 24 0 -2
BITMAP
0000
0000
0000
0000
1000
7000
3000
3000
3780
3860
3020
3030
3030
3030
3030
3030
3020
3860
3780
0000
0000
0000
0000
0000
ENDCHAR

STARTCHAR C099
ENCODING 99
SWIDTH 451 0
DWIDTH 12 0
BBX 12 24 0 -2
BITMAP
0000
0000
0000
0000
0000
0000
0000
0000
0790
1870
3030
3010
6000
6000
6000
3000
3010
1820
07C0
0000
0000
0000
0000
0000
ENDCHAR

STARTCHAR C100
ENCODING 100
SWIDTH 451 0
DWIDTH 12 0
BBX 12 24 0 -2
BITMAP
0000
0000
0000
0000
0020
00E0
0060
0060
0F60
38E0
3060
6060
6060
6060
6060
6060
3060
3860
0FB0
0000
0000
0000
0000
0000
ENDCHAR

STARTCHAR C101
ENCODING 101
SWIDTH 451 0
DWIDTH 12 0
BBX 12 24 0 -2
BITMAP
0000
0000
0000
0000
0000
0000
0000
0000
0F80
3060
3060
6030
7FF0
6000
6000
6000
3030
3860
0F80
0000
0000
0000
0000
0000
ENDCHAR

STARTCHAR C102
ENCODING 102
SWIDTH 451 0
DWIDTH 12 0
BBX 12 24 0 -2
BITMAP
0000
0000
0000
0000
0380
04C0
0CC0
0C00
0C00
0C00
3F80
0C00
0C00
0C00
0C00
0C00
0C00
0C00
7F80
0000
0000
0000
0000
0000
ENDCHAR

STARTCHAR C103
ENCODING 103
SWIDTH 451 0
DWIDTH 12 0
BBX 12 24 0 -2
BITMAP
0000
0000
0000
0000
0000
0000
0000
0000
0660
1980
30C0
30C0
30C0
1180
1E00
3000
1F80
3060
6030
6030
6030
3060
0F80
0000
ENDCHAR

STARTCHAR C104
ENCODING 104
SWIDTH 451 0
DWIDTH 12 0
BBX 12 24 0 -2
BITMAP
0000
0000
0000
0000
1000
7000
3000
3000
3780
38C0
3060
3060
3060
3060
3060
3060
3060
3060
78F0
0000
0000
0000
0000
0000
ENDCHAR

STARTCHAR C105
ENCODING 105
SWIDTH 451 0
DWIDTH 12 0
BBX 12 24 0 -2
BITMAP
0000
0000
0000
0000
0600
0F00
0600
0000
0200
1E00
0600
0600
0600
0600
0600
0600
0600
0600
3FC0
0000
0000
0000
0000
0000
ENDCHAR

STARTCHAR C106
ENCODING 106
SWIDTH 451 0
DWIDTH 12 0
BBX 12 24 0 -2
BITMAP
0000
0000
0000
0000
0180
03C0
0180
0000
0040
07C0
00C0
00C0
00C0
00C0
00C0
00C0
00C0
10C0
38C0
38C0
3080
1980
0F00
0000
ENDCHAR

STARTCHAR C107
ENCODING 107
SWIDTH 451 0
DWIDTH 12 0
BBX 12 24 0 -2
BITMAP
0000
0000
0000
0000
7800
3000
3000
3000
31E0
30C0
3180
3300
3600
3E00
3300
3180
30C0
3060
78F0
0000
0000
0000
0000
0000
ENDCHAR

STARTCHAR C108
ENCODING 108
SWIDTH 451 0
DWIDTH 12 0
BBX 12 24 0 -2
BITMAP
0000
0000
0000
0000
0200
3E00
0600
0600
0600
0600
0600
0600
0600
0600
0600
0600
0600
0600
3FC0
0000
0000
0000
0000
0000
ENDCHAR

STARTCHAR C109
ENCODING 109
SWIDTH 451 0
DWIDTH 12 0
BBX 12 24 0 -2
BITMAP
0000
0000
0000
0000
0000
0000
0000
0000
DDC0
6660
6660
6660
6660
6660
6660
6660
6660
6660
EF70
0000
0000
0000
0000
0000
ENDCHAR

STARTCHAR C110
ENCODING 110
SWIDTH 451 0
DWIDTH 12 0
BBX 12 24 0 -2
BITMAP
0000
0000
0000
0000
0000
0000
0000
0000
2FC0
7860
3060
3060
3060
3060
3060
3060
3060
3060
78F0
0000
0000
0000
0000
0000
ENDCHAR

STARTCHAR C111
ENCODING 111
SWIDTH 451 0
DWIDTH 12 0
BBX 12 24 0 -2
BITMAP
0000
0000
0000
0000
0000
0000
0000
0000
0700
18C0
3060
6030
6030
6030
6030
6030
3060
18C0
0700
0000
0000
0000
0000
0000
ENDCHAR

STARTCHAR C112
ENCODING 112
SWIDTH 451 0
DWIDTH 12 0
BBX 12 24 0 -2
BITMAP
0000
0000
0000
0000
0000
0000
0000
0000
1780
7860
3020
3030
3030
3030
3030
3030
3020
3860
3780
3000
3000
3000
7C00
0000
ENDCHAR

STARTCHAR C113
ENCODING 113
SWIDTH 451 0
DWIDTH 12 0
BBX 12 24 0 -2
BITMAP
0000
0000
0000
0000
0000
0000
0000
0000
0F20
30E0
2060
6060
6060
6060
6060
6060
2060
30E0
0F60
0060
0060
0060
01F0
0000
ENDCHAR

STARTCHAR C114
ENCODING 114
SWIDTH 451 0
DWIDTH 12 0
BBX 12 24 0 -2
BITMAP
0000
0000
0000
0000
0000
0000
0000
0000
09C0
7A60
1C60
1800
1800
1800
1800
1800
1800
1800
7F00
0000
0000
0000
0000
0000
ENDCHAR

STARTCHAR C115
ENCODING 115
SWIDTH 451 0
DWIDTH 12 0
BBX 12 24 0 -2
BITMAP
0000
0000
0000
0000
0000
0000
0000
0000
1F90
38F0
3030
3810
1E00
0780
01E0
2070
2030
3870
27E0
0000
0000
0000
0000
0000
ENDCHAR

STARTCHAR C116
ENCODING 116
SWIDTH 451 0
DWIDTH 12 0
BBX 12 24 0 -2
BITMAP
0000
0000
0000
0000
0800
0800
1800
1800
7F00
1800
1800
1800
1800
1800
1800
1800
1840
0C80
0700
0000
0000
0000
0000
0000
ENDCHAR

STARTCHAR C117
ENCODING 117
SWIDTH 451 0
DWIDTH 12 0
BBX 12 24 0 -2
BITMAP
0000
0000
0000
0000
0000
0000
0000
0000
71E0
3060
3060
3060
3060
3060
3060
3060
3060
1860
0FB0
0000
0000
0000
0000
0000
ENDCHAR

STARTCHAR C118
ENCODING 118
SWIDTH 451 0
DWIDTH 12 0
BBX 12 24 0 -2
BITMAP
0000
0000
0000
0000
0000
0000
0000
0000
78E0
3040
3040
3040
1880
1880
1880
0D00
0D00
0700
0600
0000
0000
0000
0000
0000
ENDCHAR

STARTCHAR C119
ENCODING 119
SWIDTH 451 0
DWIDTH 12 0
BBX 12 24 0 -2
BITMAP
0000
0000
0000
0000
0000
0000
0000
0000
EF70
6620
6620
6620
6F40
2B40
2B40
39C0
39C0
1080
1080
0000
0000
0000
0000
0000
ENDCHAR

STARTCHAR C120
ENCODING 120
SWIDTH 451 0
DWIDTH 12 0
BBX 12 24 0 -2
BITMAP
0000
0000
0000
0000
0000
0000
0000
0000
F8F0
7060
38C0
1D80
0F00
0700
0F80
19C0
30E0
6070
F0F0
0000
0000
0000
0000
0000
ENDCHAR

STARTCHAR C121
ENCODING 121
SWIDTH 451 0
DWIDTH 12 0
BBX 12 24 0 -2
BITMAP
0000
0000
0000
0000
0000
0000
0000
0000
7CF0
3820
1820
1860
0C40
0C40
0CC0
0680
0780
0300
0300
0300
3200
3600
1C00
0000
ENDCHAR

STARTCHAR C122
ENCODING 122
SWIDTH 451 0
DWIDTH 12 0
BBX 12 24 0 -2
BITMAP
0000
0000
0000
0000
0000
0000
0000
0000
3FE0
6060
40E0
01C0
0380
0700
0E00
1C00
3820
7060
7FC0
0000
0000
0000
0000
0000
ENDCHAR

STARTCHAR C123
ENCODING 123
SWIDTH 451 0
DWIDTH 12 0
BBX 12 24 0 -2
BITMAP
0000
00C0
0300
0200
0600
0600
0600
0600
0600
0400
0C00
3800
0C00
0400
0600
0600
0600
0600
0600
0600
0200
0300
00C0
0000
ENDCHAR

STARTCHAR C124
ENCODING 124
SWIDTH 451 0
DWIDTH 12 0
BBX 12 24 0 -2
BITMAP
0000
0400
0400
0400
0400
0400
0400
0400
0400
0400
0400
0400
0400
0400
0400
0400
0400
0400
0400
0400
0400
0400
0400
0000
ENDCHAR

STARTCHAR C125
ENCODING 125
SWIDTH 451 0
DWIDTH 12 0
BBX 12 24 0 -2
BITMAP
0000
3000
0C00
0400
0600
0600
0600
0600
0600
0600
0300
01C0
0300
0200
0600
0600
0600
0600
0600
0600
0400
0C00
3000
0000
ENDCHAR

STARTCHAR C126
ENCODING 126
SWIDTH 451 0
DWIDTH 12 0
BBX 12 24 0 -2
BITMAP
1820
3E60
63C0
4180
0000
0000
0000
0000
0000
0000
0000
0000
0000
0000
0000
0000
0000
0000
0000
0000
0000
0000
0000
0000
ENDCHAR

STARTCHAR C127
ENCODING 127
SWIDTH 451 0
DWIDTH 12 0
BBX 12 24 0 -2
BITMAP
0000
0000
0000
0000
0000
0000
0200
0700
0700
0F80
0D80
18C0
18C0
3060
3060
7FF0
7FF0
0000
0000
0000
0000
0000
0000
0000
ENDCHAR

STARTCHAR C128
ENCODING 128
SWIDTH 451 0
DWIDTH 12 0
BBX 12 24 0 -2
BITMAP
0000
0000
0000
0000
0780
1860
3010
3000
6000
6000
6000
6000
6000
6000
6000
3000
3010
1860
0780
0300
0080
0880
0700
0000
ENDCHAR

STARTCHAR C129
ENCODING 129
SWIDTH 451 0
DWIDTH 12 0
BBX 12 24 0 -2
BITMAP
0000
0000
0000
0000
30C0
79E0
30C0
0000
70E0
3060
3060
3060
3060
3060
3060
3060
3060
18E0
0730
0000
0000
0000
0000
0000
ENDCHAR

STARTCHAR C130
ENCODING 130
SWIDTH 451 0
DWIDTH 12 0
BBX 12 24 0 -2
BITMAP
0000
0000
0000
0180
03C0
0E00
0000
0000
0F00
30C0
3060
6060
7FE0
6000
6000
6000
3020
3840
0F80
0000
0000
0000
0000
0000
ENDCHAR

STARTCHAR C131
ENCODING 131
SWIDTH 451 0
DWIDTH 12 0
BBX 12 24 0 -2
BITMAP
0000
0000
0000
0600
0F00
1980
0000
0000
0F00
30C0
3060
0060
0FE0
3060
6060
6060
6060
30E0
0FB0
0000
0000
0000
0000
0000
ENDCHAR

STARTCHAR C132
ENCODING 132
SWIDTH 451 0
DWIDTH 12 0
BBX 12 24 0 -2
BITMAP
0000
0000
0000
0000
1860
3CF0
1860
0000
0F00
30C0
3060
0060
0FE0
3060
6060
6060
6060
30E0
0FB0
0000
0000
0000
0000
0000
ENDCHAR

STARTCHAR C133
ENCODING 133
SWIDTH 451 0
DWIDTH 12 0
BBX 12 24 0 -2
BITMAP
0000
0000
0000
0C00
1E00
0380
0000
0000
0F00
30C0
3060
0060
0FE0
3060
6060
6060
6060
30E0
0FB0
0000
0000
0000
0000
0000
ENDCHAR

STARTCHAR C134
ENCODING 134
SWIDTH 451 0
DWIDTH 12 0
BBX 12 24 0 -2
BITMAP
0000
0000
0000
0700
0880
0880
0700
0000
0F00
30C0
3060
0060
0FE0
3060
6060
6060
6060
30E0
0FB0
0000
0000
0000
0000
0000
ENDCHAR

STARTCHAR C135
ENCODING 135
SWIDTH 451 0
DWIDTH 12 0
BBX 12 24 0 -2
BITMAP
0000
0000
0000
0000
0000
0000
0000
0000
0700
18C0
3020
6000
6000
6000
6000
6000
3020
3840
0F80
0300
0080
0880
0700
0000
ENDCHAR

STARTCHAR C136
ENCODING 136
SWIDTH 451 0
DWIDTH 12 0
BBX 12 24 0 -2
BITMAP
0000
0000
0000
0000
00C0
03C0
0E00
0000
0F80
3860
3030
6030
7FF0
6000
6000
6000
3010
3860
0F80
0000
0000
0000
0000
0000
ENDCHAR

STARTCHAR C137
ENCODING 137
SWIDTH 451 0
DWIDTH 12 0
BBX 12 24 0 -2
BITMAP
0000
0000
0000
0000
1860
3CF0
1860
0000
0F80
3860
3030
6030
7FF0
6000
6000
6000
3010
3860
0F80
0000
0000
0000
0000
0000
ENDCHAR

STARTCHAR C138
ENCODING 138
SWIDTH 451 0
DWIDTH 12 0
BBX 12 24 0 -2
BITMAP
0000
0000
0000
0000
0E00
0700
0180
0000
0F80
3860
3030
6030
7FF0
6000
6000
6000
3010
3060
0F80
0000
0000
0000
0000
0000
ENDCHAR

STARTCHAR C139
ENCODING 139
SWIDTH 451 0
DWIDTH 12 0
BBX 12 24 0 -2
BITMAP
0000
0000
0000
0000
18C0
3DE0
18C0
0000
1F00
0300
0300
0300
0300
0300
0300
0300
0300
0300
1FE0
0000
0000
0000
0000
0000
ENDCHAR

STARTCHAR C140
ENCODING 140
SWIDTH 451 0
DWIDTH 12 0
BBX 12 24 0 -2
BITMAP
0000
0000
0000
0600
0F00
1980
0000
0000
1F00
0300
0300
0300
0300
0300
0300
0300
0300
0300
1FE0
0000
0000
0000
0000
0000
ENDCHAR

STARTCHAR C141
ENCODING 141
SWIDTH 451 0
DWIDTH 12 0
BBX 12 24 0 -2
BITMAP
0000
0000
0000
0C00
1E00
0380
0000
0000
1F00
0300
0300
0300
0300
0300
0300
0300
0300
0300
1FE0
0000
0000
0000
0000
0000
ENDCHAR

STARTCHAR C142
ENCODING 142
SWIDTH 451 0
DWIDTH 12 0
BBX 12 24 0 -2
BITMAP
0C60
1EF0
0C60
0000
0300
0300
0700
0580
0580
0D80
08C0
08C0
18C0
1FC0
1060
3060
2060
2060
F8F0
0000
0000
0000
0000
0000
ENDCHAR

STARTCHAR C143
ENCODING 143
SWIDTH 451 0
DWIDTH 12 0
BBX 12 24 0 -2
BITMAP
0300
0480
0300
0000
0300
0300
0780
0580
0580
0D80
08C0
08C0
18C0
1FC0
1060
3060
2060
2060
F8F0
0000
0000
0000
0000
0000
ENDCHAR

STARTCHAR C144
ENCODING 144
SWIDTH 451 0
DWIDTH 12 0
BBX 12 24 0 -2
BITMAP
0180
03C0
0E00
0000
7FE0
1830
1810
1800
1880
1880
1F80
1880
1880
1800
1800
1800
1810
1830
7FE0
0000
0000
0000
0000
0000
ENDCHAR

STARTCHAR C145
ENCODING 145
SWIDTH 451 0
DWIDTH 12 0
BBX 12 24 0 -2
BITMAP
0000
0000
0000
0000
0000
0000
0000
0000
79E0
8630
0630
0630
0630
7FE0
C600
C600
C600
C610
79E0
0000
0000
0000
0000
0000
ENDCHAR

STARTCHAR C146
ENCODING 146
SWIDTH 451 0
DWIDTH 12 0
BBX 12 24 0 -2
BITMAP
0000
0000
0000
0000
03F0
0790
0580
0580
0D80
0990
09F0
1990
1F80
1180
1180
3180
2180
2190
7BF0
0000
0000
0000
0000
0000
ENDCHAR

STARTCHAR C147
ENCODING 147
SWIDTH 451 0
DWIDTH 12 0
BBX 12 24 0 -2
BITMAP
0000
0000
0000
0600
0F00
1980
0000
0000
0F80
38E0
3060
6030
6030
6030
6030
6030
3060
38E0
0F80
0000
0000
0000
0000
0000
ENDCHAR

STARTCHAR C148
ENCODING 148
SWIDTH 451 0
DWIDTH 12 0
BBX 12 24 0 -2
BITMAP
0000
0000
0000
0000
30C0
79E0
30C0
0000
0F80
38E0
3060
6030
6030
6030
6030
6030
3060
38E0
0F80
0000
0000
0000
0000
0000
ENDCHAR

STARTCHAR C149
ENCODING 149
SWIDTH 451 0
DWIDTH 12 0
BBX 12 24 0 -2
BITMAP
0000
0000
0000
0000
1E00
0700
0180
0000
0F80
38E0
3060
6030
6030
6030
6030
6030
3060
38E0
0F80
0000
0000
0000
0000
0000
ENDCHAR

STARTCHAR C150
ENCODING 150
SWIDTH 451 0
DWIDTH 12 0
BBX 12 24 0 -2
BITMAP
0000
0000
0000
0600
0F00
1980
0000
0000
70E0
3060
3060
3060
3060
3060
3060
3060
3060
18E0
0730
0000
0000
0000
0000
0000
ENDCHAR

STARTCHAR C151
ENCODING 151
SWIDTH 451 0
DWIDTH 12 0
BBX 12 24 0 -2
BITMAP
0000
0000
0000
0C00
1E00
0380
0000
0000
70E0
3060
3060
3060
3060
3060
3060
3060
3060
18E0
0730
0000
0000
0000
0000
0000
ENDCHAR

STARTCHAR C152
ENCODING 152
SWIDTH 451 0
DWIDTH 12 0
BBX 12 24 0 -2
BITMAP
0000
0000
0000
0000
0C60
1EF0
0C60
0000
78F0
3020
3020
1860
1840
0C40
0CC0
0480
0780
0380
0300
0300
6200
7600
3C00
0000
ENDCHAR

STARTCHAR C153
ENCODING 153
SWIDTH 451 0
DWIDTH 12 0
BBX 12 24 0 -2
BITMAP
1860
3CF0
1860
0000
0780
1860
3010
3000
6000
6000
6000
6000
6000
6000
6000
3000
3010
1860
0780
0000
0000
0000
0000
0000
ENDCHAR

STARTCHAR C154
ENCODING 154
SWIDTH 451 0
DWIDTH 12 0
BBX 12 24 0 -2
BITMAP
1860
3CF0
1860
0000
0000
F0F0
6020
6020
6020
6020
6020
6020
6020
6020
6020
6020
6020
3040
0F80
0000
0000
0000
0000
0000
ENDCHAR

STARTCHAR C155
ENCODING 155
SWIDTH 451 0
DWIDTH 12 0
BBX 12 24 0 -2
BITMAP
0000
0000
0000
0000
0000
0000
0300
0300
0FC0
3B20
3310
6300
6300
6300
6300
3300
3310
1B60
0780
0300
0300
0000
0000
0000
ENDCHAR

STARTCHAR C156
ENCODING 156
SWIDTH 451 0
DWIDTH 12 0
BBX 12 24 0 -2
BITMAP
0000
0000
0000
0000
0780
0CC0
19C0
1880
1800
1800
7F80
0C00
0C00
3C00
C600
C600
C300
C790
3C60
0000
0000
0000
0000
0000
ENDCHAR

STARTCHAR C157
ENCODING 157
SWIDTH 451 0
DWIDTH 12 0
BBX 12 24 0 -2
BITMAP
0000
0000
0000
0000
F8F0
3040
30C0
1880
1980
0D00
7FE0
0600
7FE0
0600
0600
0600
0600
0600
1F80
0000
0000
0000
0000
0000
ENDCHAR

STARTCHAR C158
ENCODING 158
SWIDTH 451 0
DWIDTH 12 0
BBX 12 24 0 -2
BITMAP
0000
0000
0000
0000
7F80
3060
3030
3030
3030
3030
3060
3F80
3040
30C0
31E0
30C0
30C0
30D0
7860
0000
0000
0000
0000
0000
ENDCHAR

STARTCHAR C159
ENCODING 159
SWIDTH 451 0
DWIDTH 12 0
BBX 12 24 0 -2
BITMAP
0000
0000
00E0
0130
0330
0300
0300
0300
0300
1FF0
0300
0300
0300
0300
0300
2300
7300
7300
6600
2600
1C00
0000
0000
0000
ENDCHAR

STARTCHAR C160
ENCODING 160
SWIDTH 451 0
DWIDTH 12 0
BBX 12 24 0 -2
BITMAP
0000
0000
0000
01C0
03E0
0E00
0000
0000
0F00
30C0
6060
6060
07E0
3860
6060
6060
6060
3060
0FB0
0000
0000
0000
0000
0000
ENDCHAR

STARTCHAR C161
ENCODING 161
SWIDTH 451 0
DWIDTH 12 0
BBX 12 24 0 -2
BITMAP
0000
0000
0000
0180
07C0
1E00
0000
0000
0F00
0300
0300
0300
0300
0300
0300
0300
0300
0300
0FC0
0000
0000
0000
0000
0000
ENDCHAR

STARTCHAR C162
ENCODING 162
SWIDTH 451 0
DWIDTH 12 0
BBX 12 24 0 -2
BITMAP
0000
0000
0000
0180
03C0
0E00
0000
0000
0F80
3840
3060
6000
6000
6000
6000
6000
3020
3040
0F80
0000
0000
0000
0000
0000
ENDCHAR

STARTCHAR C163
ENCODING 163
SWIDTH 451 0
DWIDTH 12 0
BBX 12 24 0 -2
BITMAP
0000
0000
0000
0180
03C0
0E00
0000
0000
70E0
3060
3060
3060
3060
3060
3060
3060
3060
18E0
0730
0000
0000
0000
0000
0000
ENDCHAR

STARTCHAR C164
ENCODING 164
SWIDTH 451 0
DWIDTH 12 0
BBX 12 24 0 -2
BITMAP
0000
0000
0000
0000
0720
18C0
0000
0000
6780
38C0
3060
3060
3060
3060
3060
3060
3060
3060
7CF0
0000
0000
0000
0000
0000
ENDCHAR

STARTCHAR C165
ENCODING 165
SWIDTH 451 0
DWIDTH 12 0
BBX 12 24 0 -2
BITMAP
0E30
31C0
0000
0000
F0F0
3820
3820
2C20
2C20
2620
2620
2320
2320
21A0
21A0
20E0
20E0
2060
F860
0000
0000
0000
0000
0000
ENDCHAR

STARTCHAR C166
ENCODING 166
SWIDTH 451 0
DWIDTH 12 0
BBX 12 24 0 -2
BITMAP
0000
0000
0000
0000
0FC0
3060
0060
0FE0
3060
3060
3060
3060
0FB0
0000
3FF0
0000
0000
0000
0000
0000
0000
0000
0000
0000
ENDCHAR

STARTCHAR C167
ENCODING 167
SWIDTH 451 0
DWIDTH 12 0
BBX 12 24 0 -2
BITMAP
0000
0000
0000
0000
0F80
3060
6030
6030
6030
6030
6030
3060
0F80
0000
7FF0
0000
0000
0000
0000
0000
0000
0000
0000
0000
ENDCHAR

STARTCHAR C168
ENCODING 168
SWIDTH 451 0
DWIDTH 12 0
BBX 12 24 0 -2
BITMAP
0000
0000
0000
0100
0380
0380
0100
0000
0000
0100
0100
0100
0200
0600
0C00
1800
3060
3070
3020
1860
0780
0000
0000
0000
ENDCHAR

STARTCHAR C169
ENCODING 169
SWIDTH 451 0
DWIDTH 12 0
BBX 12 24 0 -2
BITMAP
0000
0000
0000
0000
0000
0000
0000
0000
7FF0
7FF0
6000
6000
6000
6000
6000
6000
0000
0000
0000
0000
0000
0000
0000
0000
ENDCHAR

STARTCHAR C170
ENCODING 170
SWIDTH 451 0
DWIDTH 12 0
BBX 12 24 0 -2
BITMAP
0000
0000
0000
0000
0000
0000
0000
0000
FFF0
FFF0
0030
0030
0030
0030
0030
0030
0000
0000
0000
0000
0000
0000
0000
0000
ENDCHAR

STARTCHAR C171
ENCODING 171
SWIDTH 451 0
DWIDTH 12 0
BBX 12 24 0 -2
BITMAP
0000
0030
1030
7060
3060
30C0
30C0
3180
7980
0300
0300
0600
0600
0CE0
0DB0
1830
1860
30C0
3190
61F0
6000
0000
0000
0000
ENDCHAR

STARTCHAR C172
ENCODING 172
SWIDTH 451 0
DWIDTH 12 0
BBX 12 24 0 -2
BITMAP
0000
0030
1030
7060
3060
30C0
30C0
3180
7980
0300
0300
0600
0660
0CE0
0CE0
19E0
1B60
33F0
3060
60F0
6000
0000
0000
0000
ENDCHAR

STARTCHAR C173
ENCODING 173
SWIDTH 451 0
DWIDTH 12 0
BBX 12 24 0 -2
BITMAP
0000
0000
0200
0700
0200
0000
0000
0000
0200
0200
0200
0200
0700
0700
0700
0700
0700
0700
0700
0700
0700
0200
0000
0000
ENDCHAR

STARTCHAR C174
ENCODING 174
SWIDTH 451 0
DWIDTH 12 0
BBX 12 24 0 -2
BITMAP
0000
0000
0000
0000
0000
0000
0000
0210
0630
0C60
18C0
3180
6300
3180
18C0
0C60
0630
0210
0000
0000
0000
0000
0000
0000
ENDCHAR

STARTCHAR C175
ENCODING 175
SWIDTH 451 0
DWIDTH 12 0
BBX 12 24 0 -2
BITMAP
0000
0000
0000
0000
0000
0000
0000
4200
6300
3180
18C0
0C60
0630
0C60
18C0
3180
6300
4200
0000
0000
0000
0000
0000
0000
ENDCHAR

STARTCHAR C176
ENCODING 176
SWIDTH 451 0
DWIDTH 12 0
BBX 12 24 0 -2
BITMAP
8880
0000
2220
0000
8880
0000
2220
0000
8880
0000
2220
0000
8880
0000
2220
0000
8880
0000
2220
0000
8880
0000
2220
0000
ENDCHAR

STARTCHAR C177
ENCODING 177
SWIDTH 451 0
DWIDTH 12 0
BBX 12 24 0 -2
BITMAP
AAA0
0000
AAA0
0000
AAA0
0000
AAA0
0000
AAA0
0000
AAA0
0000
AAA0
0000
AAA0
0000
AAA0
0000
AAA0
0000
AAA0
0000
AAA0
0000
ENDCHAR

STARTCHAR C178
ENCODING 178
SWIDTH 451 0
DWIDTH 12 0
BBX 12 24 0 -2
BITMAP
AAA0
4440
AAA0
1110
AAA0
4440
AAA0
1110
AAA0
4440
AAA0
1110
AAA0
4440
AAA0
1110
AAA0
4440
AAA0
1110
AAA0
4440
AAA0
1110
ENDCHAR

STARTCHAR C179
ENCODING 179
SWIDTH 451 0
DWIDTH 12 0
BBX 12 24 0 -2
BITMAP
0600
0600
0600
0600
0600
0600
0600
0600
0600
0600
0600
0600
0600
0600
0600
0600
0600
0600
0600
0600
0600
0600
0600
0600
ENDCHAR

STARTCHAR C180
ENCODING 180
SWIDTH 451 0
DWIDTH 12 0
BBX 12 24 0 -2
BITMAP
0600
0600
0600
0600
0600
0600
0600
0600
0600
0600
0600
FE00
FE00
0600
0600
0600
0600
0600
0600
0600
0600
0600
0600
0600
ENDCHAR

STARTCHAR C181
ENCODING 181
SWIDTH 451 0
DWIDTH 12 0
BBX 12 24 0 -2
BITMAP
0600
0600
0600
0600
0600
0600
0600
0600
0600
FE00
FE00
0600
0600
FE00
FE00
0600
0600
0600
0600
0600
0600
0600
0600
0600
ENDCHAR

STARTCHAR C182
ENCODING 182
SWIDTH 451 0
DWIDTH 12 0
BBX 12 24 0 -2
BITMAP
1980
1980
1980
1980
1980
1980
1980
1980
1980
1980
1980
F980
F980
1980
1980
1980
1980
1980
1980
1980
1980
1980
1980
1980
ENDCHAR

STARTCHAR C183
ENCODING 183
SWIDTH 451 0
DWIDTH 12 0
BBX 12 24 0 -2
BITMAP
0000
0000
0000
0000
0000
0000
0000
0000
0000
0000
0000
FF80
FF80
1980
1980
1980
1980
1980
1980
1980
1980
1980
1980
1980
ENDCHAR

STARTCHAR C184
ENCODING 184
SWIDTH 451 0
DWIDTH 12 0
BBX 12 24 0 -2
BITMAP
0000
0000
0000
0000
0000
0000
0000
0000
0000
FE00
FE00
0600
0600
FE00
FE00
0600
0600
0600
0600
0600
0600
0600
0600
0600
ENDCHAR

STARTCHAR C185
ENCODING 185
SWIDTH 451 0
DWIDTH 12 0
BBX 12 24 0 -2
BITMAP
1980
1980
1980
1980
1980
1980
1980
1980
1980
F980
F980
0180
0180
F980
F980
1980
1980
1980
1980
1980
1980
1980
1980
1980
ENDCHAR

STARTCHAR C186
ENCODING 186
SWIDTH 451 0
DWIDTH 12 0
BBX 12 24 0 -2
BITMAP
1980
1980
1980
1980
1980
1980
1980
1980
1980
1980
1980
1980
1980
1980
1980
1980
1980
1980
1980
1980
1980
1980
1980
1980
ENDCHAR

STARTCHAR C187
ENCODING 187
SWIDTH 451 0
DWIDTH 12 0
BBX 12 24 0 -2
BITMAP
0000
0000
0000
0000
0000
0000
0000
0000
0000
FF80
FF80
0180
0180
F980
F980
1980
1980
1980
1980
1980
1980
1980
1980
1980
ENDCHAR

STARTCHAR C188
ENCODING 188
SWIDTH 451 0
DWIDTH 12 0
BBX 12 24 0 -2
BITMAP
1980
1980
1980
1980
1980
1980
1980
1980
1980
F980
F980
0180
0180
FF80
FF80
0000
0000
0000
0000
0000
0000
0000
0000
0000
ENDCHAR

STARTCHAR C189
ENCODING 189
SWIDTH 451 0
DWIDTH 12 0
BBX 12 24 0 -2
BITMAP
1980
1980
1980
1980
1980
1980
1980
1980
1980
1980
1980
FF80
FF80
0000
0000
0000
0000
0000
0000
0000
0000
0000
0000
0000
ENDCHAR

STARTCHAR C190
ENCODING 190
SWIDTH 451 0
DWIDTH 12 0
BBX 12 24 0 -2
BITMAP
0600
0600
0600
0600
0600
0600
0600
0600
0600
FE00
FE00
0600
0600
FE00
FE00
0000
0000
0000
0000
0000
0000
0000
0000
0000
ENDCHAR

STARTCHAR C191
ENCODING 191
SWIDTH 451 0
DWIDTH 12 0
BBX 12 24 0 -2
BITMAP
0000
0000
0000
0000
0000
0000
0000
0000
0000
0000
0000
FE00
FE00
0600
0600
0600
0600
0600
0600
0600
0600
0600
0600
0600
ENDCHAR

STARTCHAR C192
ENCODING 192
SWIDTH 451 0
DWIDTH 12 0
BBX 12 24 0 -2
BITMAP
0600
0600
0600
0600
0600
0600
0600
0600
0600
0600
0600
07F0
07F0
0000
0000
0000
0000
0000
0000
0000
0000
0000
0000
0000
ENDCHAR

STARTCHAR C193
ENCODING 193
SWIDTH 451 0
DWIDTH 12 0
BBX 12 24 0 -2
BITMAP
0600
0600
0600
0600
0600
0600
0600
0600
0600
0600
0600
FFF0
FFF0
0000
0000
0000
0000
0000
0000
0000
0000
0000
0000
0000
ENDCHAR

STARTCHAR C194
ENCODING 194
SWIDTH 451 0
DWIDTH 12 0
BBX 12 24 0 -2
BITMAP
0000
0000
0000
0000
0000
0000
0000
0000
0000
0000
0000
FFF0
FFF0
0600
0600
0600
0600
0600
0600
0600
0600
0600
0600
0600
ENDCHAR

STARTCHAR C195
ENCODING 195
SWIDTH 451 0
DWIDTH 12 0
BBX 12 24 0 -2
BITMAP
0600
0600
0600
0600
0600
0600
0600
0600
0600
0600
0600
07F0
07F0
0600
0600
0600
0600
0600
0600
0600
0600
0600
0600
0600
ENDCHAR

STARTCHAR C196
ENCODING 196
SWIDTH 451 0
DWIDTH 12 0
BBX 12 24 0 -2
BITMAP
0000
0000
0000
0000
0000
0000
0000
0000
0000
0000
0000
FFF0
FFF0
0000
0000
0000
0000
0000
0000
0000
0000
0000
0000
0000
ENDCHAR

STARTCHAR C197
ENCODING 197
SWIDTH 451 0
DWIDTH 12 0
BBX 12 24 0 -2
BITMAP
0600
0600
0600
0600
0600
0600
0600
0600
0600
0600
0600
FFF0
FFF0
0600
0600
0600
0600
0600
0600
0600
0600
0600
0600
0600
ENDCHAR

STARTCHAR C198
ENCODING 198
SWIDTH 451 0
DWIDTH 12 0
BBX 12 24 0 -2
BITMAP
0600
0600
0600
0600
0600
0600
0600
0600
0600
07F0
07F0
0600
0600
07F0
07F0
0600
0600
0600
0600
0600
0600
0600
0600
0600
ENDCHAR

STARTCHAR C199
ENCODING 199
SWIDTH 451 0
DWIDTH 12 0
BBX 12 24 0 -2
BITMAP
1980
1980
1980
1980
1980
1980
1980
1980
1980
1980
1980
19F0
19F0
1980
1980
1980
1980
1980
1980
1980
1980
1980
1980
1980
ENDCHAR

STARTCHAR C200
ENCODING 200
SWIDTH 451 0
DWIDTH 12 0
BBX 12 24 0 -2
BITMAP
1980
1980
1980
1980
1980
1980
1980
1980
1980
19F0
19F0
1800
1800
1FF0
1FF0
0000
0000
0000
0000
0000
0000
0000
0000
0000
ENDCHAR

STARTCHAR C201
ENCODING 201
SWIDTH 451 0
DWIDTH 12 0
BBX 12 24 0 -2
BITMAP
0000
0000
0000
0000
0000
0000
0000
0000
0000
1FF0
1FF0
1800
1800
19F0
19F0
1980
1980
1980
1980
1980
1980
1980
1980
1980
ENDCHAR

STARTCHAR C202
ENCODING 202
SWIDTH 451 0
DWIDTH 12 0
BBX 12 24 0 -2
BITMAP
1980
1980
1980
1980
1980
1980
1980
1980
1980
F9F0
F9F0
0000
0000
FFF0
FFF0
0000
0000
0000
0000
0000
0000
0000
0000
0000
ENDCHAR

STARTCHAR C203
ENCODING 203
SWIDTH 451 0
DWIDTH 12 0
BBX 12 24 0 -2
BITMAP
0000
0000
0000
0000
0000
0000
0000
0000
0000
FFF0
FFF0
0000
0000
F9F0
F9F0
1980
1980
1980
1980
1980
1980
1980
1980
1980
ENDCHAR

STARTCHAR C204
ENCODING 204
SWIDTH 451 0
DWIDTH 12 0
BBX 12 24 0 -2
BITMAP
1980
1980
1980
1980
1980
1980
1980
1980
1980
19F0
19F0
1800
1800
19F0
19F0
1980
1980
1980
1980
1980
1980
1980
1980
1980
ENDCHAR

STARTCHAR C205
ENCODING 205
SWIDTH 451 0
DWIDTH 12 0
BBX 12 24 0 -2
BITMAP
0000
0000
0000
0000
0000
0000
0000
0000
0000
FFF0
FFF0
0000
0000
FFF0
FFF0
0000
0000
0000
0000
0000
0000
0000
0000
0000
ENDCHAR

STARTCHAR C206
ENCODING 206
SWIDTH 451 0
DWIDTH 12 0
BBX 12 24 0 -2
BITMAP
1980
1980
1980
1980
1980
1980
1980
1980
1980
F9F0
F9F0
0000
0000
F9F0
F9F0
1980
1980
1980
1980
1980
1980
1980
1980
1980
ENDCHAR

STARTCHAR C207
ENCODING 207
SWIDTH 451 0
DWIDTH 12 0
BBX 12 24 0 -2
BITMAP
0600
0600
0600
0600
0600
0600
0600
0600
0600
FFF0
FFF0
0000
0000
FFF0
FFF0
0000
0000
0000
0000
0000
0000
0000
0000
0000
ENDCHAR

STARTCHAR C208
ENCODING 208
SWIDTH 451 0
DWIDTH 12 0
BBX 12 24 0 -2
BITMAP
1980
1980
1980
1980
1980
1980
1980
1980
1980
1980
1980
FFF0
FFF0
0000
0000
0000
0000
0000
0000
0000
0000
0000
0000
0000
ENDCHAR

STARTCHAR C209
ENCODING 209
SWIDTH 451 0
DWIDTH 12 0
BBX 12 24 0 -2
BITMAP
0000
0000
0000
0000
0000
0000
0000
0000
0000
FFF0
FFF0
0000
0000
FFF0
FFF0
0600
0600
0600
0600
0600
0600
0600
0600
0600
ENDCHAR

STARTCHAR C210
ENCODING 210
SWIDTH 451 0
DWIDTH 12 0
BBX 12 24 0 -2
BITMAP
0000
0000
0000
0000
0000
0000
0000
0000
0000
0000
0000
FFF0
FFF0
1980
1980
1980
1980
1980
1980
1980
1980
1980
1980
1980
ENDCHAR

STARTCHAR C211
ENCODING 211
SWIDTH 451 0
DWIDTH 12 0
BBX 12 24 0 -2
BITMAP
1980
1980
1980
1980
1980
1980
1980
1980
1980
1980
1980
1FF0
1FF0
0000
0000
0000
0000
0000
0000
0000
0000
0000
0000
0000
ENDCHAR

STARTCHAR C212
ENCODING 212
SWIDTH 451 0
DWIDTH 12 0
BBX 12 24 0 -2
BITMAP
0600
0600
0600
0600
0600
0600
0600
0600
0600
07F0
07F0
0600
0600
07F0
07F0
0000
0000
0000
0000
0000
0000
0000
0000
0000
ENDCHAR

STARTCHAR C213
ENCODING 213
SWIDTH 451 0
DWIDTH 12 0
BBX 12 24 0 -2
BITMAP
0000
0000
0000
0000
0000
0000
0000
0000
0000
07F0
07F0
0600
0600
07F0
07F0
0600
0600
0600
0600
0600
0600
0600
0600
0600
ENDCHAR

STARTCHAR C214
ENCODING 214
SWIDTH 451 0
DWIDTH 12 0
BBX 12 24 0 -2
BITMAP
0000
0000
0000
0000
0000
0000
0000
0000
0000
0000
0000
1FF0
1FF0
1980
1980
1980
1980
1980
1980
1980
1980
1980
1980
1980
ENDCHAR

STARTCHAR C215
ENCODING 215
SWIDTH 451 0
DWIDTH 12 0
BBX 12 24 0 -2
BITMAP
1980
1980
1980
1980
1980
1980
1980
1980
1980
1980
1980
FFF0
FFF0
1980
1980
1980
1980
1980
1980
1980
1980
1980
1980
1980
ENDCHAR

STARTCHAR C216
ENCODING 216
SWIDTH 451 0
DWIDTH 12 0
BBX 12 24 0 -2
BITMAP
0600
0600
0600
0600
0600
0600
0600
0600
0600
FFF0
FFF0
0600
0600
FFF0
FFF0
0600
0600
0600
0600
0600
0600
0600
0600
0600
ENDCHAR

STARTCHAR C217
ENCODING 217
SWIDTH 451 0
DWIDTH 12 0
BBX 12 24 0 -2
BITMAP
0600
0600
0600
0600
0600
0600
0600
0600
0600
0600
0600
FE00
FE00
0000
0000
0000
0000
0000
0000
0000
0000
0000
0000
0000
ENDCHAR

STARTCHAR C218
ENCODING 218
SWIDTH 451 0
DWIDTH 12 0
BBX 12 24 0 -2
BITMAP
0000
0000
0000
0000
0000
0000
0000
0000
0000
0000
0000
07F0
07F0
0600
0600
0600
0600
0600
0600
0600
0600
0600
0600
0600
ENDCHAR

STARTCHAR C219
ENCODING 219
SWIDTH 451 0
DWIDTH 12 0
BBX 12 24 0 -2
BITMAP
FFF0
FFF0
FFF0
FFF0
FFF0
FFF0
FFF0
FFF0
FFF0
FFF0
FFF0
FFF0
FFF0
FFF0
FFF0
FFF0
FFF0
FFF0
FFF0
FFF0
FFF0
FFF0
FFF0
FFF0
ENDCHAR

STARTCHAR C220
ENCODING 220
SWIDTH 451 0
DWIDTH 12 0
BBX 12 24 0 -2
BITMAP
0000
0000
0000
0000
0000
0000
0000
0000
0000
0000
0000
0000
FFF0
FFF0
FFF0
FFF0
FFF0
FFF0
FFF0
FFF0
FFF0
FFF0
FFF0
FFF0
ENDCHAR

STARTCHAR C221
ENCODING 221
SWIDTH 451 0
DWIDTH 12 0
BBX 12 24 0 -2
BITMAP
FC00
FC00
FC00
FC00
FC00
FC00
FC00
FC00
FC00
FC00
FC00
FC00
FC00
FC00
FC00
FC00
FC00
FC00
FC00
FC00
FC00
FC00
FC00
FC00
ENDCHAR

STARTCHAR C222
ENCODING 222
SWIDTH 451 0
DWIDTH 12 0
BBX 12 24 0 -2
BITMAP
03F0
03F0
03F0
03F0
03F0
03F0
03F0
03F0
03F0
03F0
03F0
03F0
03F0
03F0
03F0
03F0
03F0
03F0
03F0
03F0
03F0
03F0
03F0
03F0
ENDCHAR

STARTCHAR C223
ENCODING 223
SWIDTH 451 0
DWIDTH 12 0
BBX 12 24 0 -2
BITMAP
FFF0
FFF0
FFF0
FFF0
FFF0
FFF0
FFF0
FFF0
FFF0
FFF0
FFF0
FFF0
0000
0000
0000
0000
0000
0000
0000
0000
0000
0000
0000
0000
ENDCHAR

STARTCHAR C224
ENCODING 224
SWIDTH 451 0
DWIDTH 12 0
BBX 12 24 0 -2
BITMAP
0000
0000
0000
0000
0000
0000
0000
0000
0790
1C70
3060
6060
6040
C0C0
C0C0
C080
C180
6380
1CE0
0000
0000
0000
0000
0000
ENDCHAR

STARTCHAR C225
ENCODING 225
SWIDTH 451 0
DWIDTH 12 0
BBX 12 24 0 -2
BITMAP
0000
0000
0000
0000
0780
1CC0
1860
3060
3060
30C0
31C0
3060
3020
3030
3030
3030
3030
3360
79C0
0000
0000
0000
0000
0000
ENDCHAR

STARTCHAR C226
ENCODING 226
SWIDTH 451 0
DWIDTH 12 0
BBX 12 24 0 -2
BITMAP
0000
0000
0000
0000
7FF0
3030
3010
3000
3000
3000
3000
3000
3000
3000
3000
3000
3000
3000
7C00
0000
0000
0000
0000
0000
ENDCHAR

STARTCHAR C227
ENCODING 227
SWIDTH 451 0
DWIDTH 12 0
BBX 12 24 0 -2
BITMAP
0000
0000
0000
0000
0000
0000
0000
0000
1FF0
7FE0
8CC0
0CC0
0CC0
1980
1980
1980
3180
6190
C0E0
0000
0000
0000
0000
0000
ENDCHAR

STARTCHAR C228
ENCODING 228
SWIDTH 451 0
DWIDTH 12 0
BBX 12 24 0 -2
BITMAP
0000
0000
0000
0000
7FF0
3810
1C10
0E00
0700
0380
0180
0300
0600
0C00
1800
3010
6010
7FF0
7FF0
0000
0000
0000
0000
0000
ENDCHAR

STARTCHAR C229
ENCODING 229
SWIDTH 451 0
DWIDTH 12 0
BBX 12 24 0 -2
BITMAP
0000
0000
0000
0000
0000
0000
0020
0060
03E0
0EC0
1860
3020
3030
6030
6030
6060
3060
39C0
0F00
0000
0000
0000
0000
0000
ENDCHAR

STARTCHAR C230
ENCODING 230
SWIDTH 451 0
DWIDTH 12 0
BBX 12 24 0 -2
BITMAP
0000
0000
0000
0000
0000
0000
0000
0000
1860
1860
1860
1040
10C0
30C0
30C0
2080
2080
3190
6F60
4000
4000
C000
C000
0000
ENDCHAR

STARTCHAR C231
ENCODING 231
SWIDTH 451 0
DWIDTH 12 0
BBX 12 24 0 -2
BITMAP
0000
0000
0000
0000
0000
0000
0000
0000
0FF0
7FC0
C300
0300
0600
0600
0C00
0C00
0C00
0C40
0380
0000
0000
0000
0000
0000
ENDCHAR

STARTCHAR C232
ENCODING 232
SWIDTH 451 0
DWIDTH 12 0
BBX 12 24 0 -2
BITMAP
0000
0000
0000
0000
3FC0
0600
0F00
36C0
6660
C630
C630
C630
C630
C630
6660
36C0
0F00
0600
3FC0
0000
0000
0000
0000
0000
ENDCHAR

STARTCHAR C233
ENCODING 233
SWIDTH 451 0
DWIDTH 12 0
BBX 12 24 0 -2
BITMAP
0000
0000
0000
0000
0700
18C0
3060
3060
6030
6030
6730
6730
6030
6030
6030
3060
3060
18C0
0700
0000
0000
0000
0000
0000
ENDCHAR

STARTCHAR C234
ENCODING 234
SWIDTH 451 0
DWIDTH 12 0
BBX 12 24 0 -2
BITMAP
0000
0000
0000
0000
0700
18C0
3060
2020
6030
6030
6030
6030
2020
3060
18C0
0880
4510
4510
7DF0
0000
0000
0000
0000
0000
ENDCHAR

STARTCHAR C235
ENCODING 235
SWIDTH 451 0
DWIDTH 12 0
BBX 12 24 0 -2
BITMAP
0000
0000
0000
0000
0000
01C0
0330
0110
0380
0C60
1830
3030
3030
6030
6030
6060
3060
30C0
0F00
0000
0000
0000
0000
0000
ENDCHAR

STARTCHAR C236
ENCODING 236
SWIDTH 451 0
DWIDTH 12 0
BBX 12 24 0 -2
BITMAP
0000
0000
0000
0000
0000
0000
0000
39C0
7FE0
C630
C630
C630
7FE0
39C0
0000
0000
0000
0000
0000
0000
0000
0000
0000
0000
ENDCHAR

STARTCHAR C237
ENCODING 237
SWIDTH 451 0
DWIDTH 12 0
BBX 12 24 0 -2
BITMAP
0000
0000
0000
0000
0180
0180
0180
0F80
33C0
6360
4320
C330
C630
C630
4620
6660
26C0
1F80
0C00
0C00
0C00
0000
0000
0000
ENDCHAR

STARTCHAR C238
ENCODING 238
SWIDTH 451 0
DWIDTH 12 0
BBX 12 24 0 -2
BITMAP
0000
0000
0000
0000
0000
0000
0000
03E0
0C00
1800
3000
3000
7FC0
6000
6000
6000
6000
3060
0F80
0000
0000
0000
0000
0000
ENDCHAR

STARTCHAR C239
ENCODING 239
SWIDTH 451 0
DWIDTH 12 0
BBX 12 24 0 -2
BITMAP
0000
0000
0000
0000
0000
0F00
3FC0
30C0
6060
6060
6060
6060
6060
6060
6060
6060
6060
6060
6060
0000
0000
0000
0000
0000
ENDCHAR

STARTCHAR C240
ENCODING 240
SWIDTH 451 0
DWIDTH 12 0
BBX 12 24 0 -2
BITMAP
0000
0000
0000
0000
0000
0000
0000
7FE0
7FE0
0000
7FE0
7FE0
0000
7FE0
7FE0
0000
0000
0000
0000
0000
0000
0000
0000
0000
ENDCHAR

STARTCHAR C241
ENCODING 241
SWIDTH 451 0
DWIDTH 12 0
BBX 12 24 0 -2
BITMAP
0000
0000
0000
0000
0000
0000
0600
0600
0600
3FC0
3FC0
0600
0600
0600
0000
0000
3FC0
3FC0
0000
0000
0000
0000
0000
0000
ENDCHAR

STARTCHAR C242
ENCODING 242
SWIDTH 451 0
DWIDTH 12 0
BBX 12 24 0 -2
BITMAP
0000
0000
0000
0000
0000
0000
3000
7C00
1F00
03C0
00E0
03C0
0F00
7C00
3000
0000
7FE0
7FE0
0000
0000
0000
0000
0000
0000
ENDCHAR

STARTCHAR C243
ENCODING 243
SWIDTH 451 0
DWIDTH 12 0
BBX 12 24 0 -2
BITMAP
0000
0000
0000
0000
0000
0000
00C0
03E0
0F80
3C00
7000
3C00
0F00
03E0
00C0
0000
7FE0
7FE0
0000
0000
0000
0000
0000
0000
ENDCHAR

STARTCHAR C244
ENCODING 244
SWIDTH 451 0
DWIDTH 12 0
BBX 12 24 0 -2
BITMAP
0000
0000
0000
0000
01E0
0330
0210
0630
0670
0620
0600
0600
0600
0600
0600
0600
0600
0600
0600
0600
0600
0600
0600
0600
ENDCHAR

STARTCHAR C245
ENCODING 245
SWIDTH 451 0
DWIDTH 12 0
BBX 12 24 0 -2
BITMAP
0600
0600
0600
0600
0600
0600
0600
0600
0600
0600
0600
0600
4600
E600
E600
C600
C400
4C00
3800
0000
0000
0000
0000
0000
ENDCHAR

STARTCHAR C246
ENCODING 246
SWIDTH 451 0
DWIDTH 12 0
BBX 12 24 0 -2
BITMAP
0000
0000
0000
0000
0000
0600
0F00
0F00
0600
0000
7FE0
7FE0
0000
0600
0F00
0F00
0600
0000
0000
0000
0000
0000
0000
0000
ENDCHAR

STARTCHAR C247
ENCODING 247
SWIDTH 451 0
DWIDTH 12 0
BBX 12 24 0 -2
BITMAP
0000
0000
0000
0000
0000
0000
0000
1C10
3630
63E0
00C0
0000
1C10
3630
63E0
00C0
0000
0000
0000
0000
0000
0000
0000
0000
ENDCHAR

STARTCHAR C248
ENCODING 248
SWIDTH 451 0
DWIDTH 12 0
BBX 12 24 0 -2
BITMAP
0000
3800
4400
4400
4400
3800
0000
0000
0000
0000
0000
0000
0000
0000
0000
0000
0000
0000
0000
0000
0000
0000
0000
0000
ENDCHAR

STARTCHAR C249
ENCODING 249
SWIDTH 451 0
DWIDTH 12 0
BBX 12 24 0 -2
BITMAP
0000
0000
0000
0000
0000
0000
0000
0000
0000
0F00
1F80
1F80
1F80
0F00
0000
0000
0000
0000
0000
0000
0000
0000
0000
0000
ENDCHAR

STARTCHAR C250
ENCODING 250
SWIDTH 451 0
DWIDTH 12 0
BBX 12 24 0 -2
BITMAP
0000
0000
0000
0000
0000
0000
0000
0000
0000
0000
0600
0F00
0F00
0600
0000
0000
0000
0000
0000
0000
0000
0000
0000
0000
ENDCHAR

STARTCHAR C251
ENCODING 251
SWIDTH 451 0
DWIDTH 12 0
BBX 12 24 0 -2
BITMAP
0000
01F0
0100
0100
0100
0100
0100
0300
0300
0200
0200
0200
0600
0600
6400
6400
B400
3400
1C00
1800
0800
0800
0800
0000
ENDCHAR

STARTCHAR C252
ENCODING 252
SWIDTH 451 0
DWIDTH 12 0
BBX 12 24 0 -2
BITMAP
0000
0000
6F00
3180
3180
3180
3180
3180
7BC0
0000
0000
0000
0000
0000
0000
0000
0000
0000
0000
0000
0000
0000
0000
0000
ENDCHAR

STARTCHAR C253
ENCODING 253
SWIDTH 451 0
DWIDTH 12 0
BBX 12 24 0 -2
BITMAP
0000
0000
1C00
6300
6300
0600
1800
3000
6300
7E00
0000
0000
0000
0000
0000
0000
0000
0000
0000
0000
0000
0000
0000
0000
ENDCHAR

STARTCHAR C254
ENCODING 254
SWIDTH 451 0
DWIDTH 12 0
BBX 12 24 0 -2
BITMAP
0000
0000
0000
0000
0000
0000
0000
0000
0000
7FE0
7FE0
7FE0
7FE0
7FE0
7FE0
0000
0000
0000
0000
0000
0000
0000
0000
0000
ENDCHAR

STARTCHAR C255
ENCODING 255
SWIDTH 451 0
DWIDTH 12 0
BBX 12 24 0 -2
BITMAP
0000
0000
0000
0000
0000
0000
0000
0000
0000
0000
0000
0000
0000
0000
0000
0000
0000
0000
0000
0000
0000
0000
0000
0000
ENDCHAR
ENDFONT
